<?xml version="1.0" encoding="utf-8"?>
<!-- Generator: Adobe Illustrator 24.2.3, SVG Export Plug-In . SVG Version: 6.00 Build 0)  -->
<svg version="1.1" id="Layer_1" xmlns="http://www.w3.org/2000/svg" xmlns:xlink="http://www.w3.org/1999/xlink" x="0px" y="0px"
	 viewBox="0 0 229.5 119.1" style="enable-background:new 0 0 229.5 119.1;" xml:space="preserve">
<style type="text/css">
	.st0{fill:#E9B94E;}
	.st1{fill:#FFFFFF;}
	.st2{fill:#D9D9D9;}
	.st3{font-family:'KelsonSans-Bold';}
	.st4{font-size:23.37px;}
	.st5{fill-rule:evenodd;clip-rule:evenodd;fill:#FFFFFF;}
</style>
<g id="Layer_2_1_">
	<g id="Layer_1-2">
		<g>
			<polygon class="st0" points="27,80.2 19.8,93.3 33.4,85.3 			"/>
			<polygon class="st0" points="85.3,32.2 92.5,19 78.9,27.1 			"/>
		</g>
		<path class="st1" d="M56.1,24.4c-17.5,0-31.8,14.2-31.8,31.8S38.5,88,56.1,88s31.8-14.2,31.8-31.8l0,0
			C87.9,38.7,73.7,24.4,56.1,24.4z M56.1,85.7c-16.3,0-29.5-13.2-29.5-29.5s13.2-29.5,29.5-29.5s29.5,13.2,29.5,29.5
			S72.4,85.7,56.1,85.7L56.1,85.7z"/>
		<path class="st1" d="M54,14.7L66.2,0l-2.4,15.5h-0.1c17.4,3.4,30.7,17.6,33,35.2l-9.5-8c-6.6-15.6-23.6-24-40-19.9l0,0L54,14.7z"
			/>
		<path class="st1" d="M14.7,58.3L0,46.1l15.5,2.4v0.1c3.5-17.4,17.6-30.7,35.2-33l-8,9.5c-15.6,6.6-24,23.6-19.9,40l0,0L14.7,58.3z
			"/>
		<path class="st1" d="M58.3,97.7l-12.2,14.7l2.4-15.5h0.1c-17.4-3.5-30.6-17.6-33-35.2l9.5,8c6.6,15.6,23.6,24,40,19.9l0,0
			L58.3,97.7z"/>
		<path class="st1" d="M97.7,54l14.7,12.2l-15.5-2.3v-0.1c-3.4,17.4-17.6,30.7-35.2,33l8-9.5c15.6-6.6,24-23.6,19.9-40l0,0L97.7,54z
			"/>
		<path class="st0" d="M51.7,51.9l22.2-14L60.7,60.5l-22.2,14L51.7,51.9z M60.1,55.6l5.2-8.8l-8.6,5.5L60.1,55.6z"/>
		<polygon class="st1" points="51.7,51.9 60.7,60.5 38.5,74.5 		"/>
		<path class="st2" d="M69.1,97l-23,15.4l11.5-13.9C57.7,98.5,61.5,99.9,69.1,97z"/>
		<text transform="matrix(1 0 0 1 129.29 113.24)" class="st1 st3 st4">SAMUGAA</text>
		<path id="Shape" class="st5" d="M155.9,59.6l-1,1.1l0.7-0.2c0,0.5,0.2,0.9,0.6,1.2c0.7,0.6,1.7,0.5,2.3-0.2s0.5-1.7-0.2-2.3
			s-1.7-0.5-2.3,0.2l0,0L155.9,59.6z M129.3,82.8c0,0.7,0.3,1.4,0.8,1.9s1.2,0.8,1.9,0.8c6.5,0,6.9,0.6,13.8-2.1
			c4.2-2.6,6.6-6.9,2.8-11.6c-3-3.6-2.3-3.9,0-3.2c4.1,5.5,11.8,6.6,17.3,2.6c5.5-4.1,6.6-11.8,2.6-17.3c-2.7-3.7-7.2-5.5-11.7-4.9
			c-7.2,1-21.4,10.9-23.5,17.4c-1.6,4.8,3.1,6.7,3.8,7.8c-1.7,0.4-3.4,0.7-5.2,0.8c-1.4,0-2.6,1.2-2.6,2.6
			C129.1,79.5,129.3,81.3,129.3,82.8z M215.6,62l-1.3,0.7l0.4-0.6c-0.5-0.1-0.9-0.4-1.1-0.8c-0.4-0.8-0.1-1.7,0.7-2.1
			c0.8-0.5,1.8-0.2,2.2,0.6s0.2,1.8-0.6,2.2c-0.1,0-0.1,0.1-0.2,0.1h-0.1V62z M229.4,61.1C230.7,49.6,217,46,208,51.2
			c-1.3,0.8-2.6,1.7-3.6,2.8c-4,3.1-4.7,8.9-1.7,12.9c0.7,0.9,1.6,1.7,2.6,2.3c-3.7,3.2-8.6,4.6-10.5,6.3c-2.6,2.3,0.8,7,2.1,9.7
			c1,1.2,2.8,1.5,4.2,0.6C209.2,82.8,227.6,69.8,229.4,61.1L229.4,61.1z M164.6,84.5c-1-0.1-1.9-0.8-2.4-1.7c-0.9-1.3,0.6-7.8,1.6-9
			c0.6-0.7,1.5-1.2,2.5-1.2c2.2,0,9.8,0.2,10.7-1.9c0.8-1.8-7.6-5.9-0.4-12.6c3-2.9,11-9.1,15.5-9.1c0.8,0,1.6,0.5,2.1,1.2
			c1.6,2.2,3,4.5,4.2,7c0,3.5-11.7,4.7-8.4,10.1s1.3,9.7-3.4,13.3C178.3,87,174.1,85.3,164.6,84.5L164.6,84.5z M141.9,29.6
			c-1.7-0.1-3-1.5-3-3.2l1.7-6.2c0.3-1.5,1.6-2.5,3.1-2.5c9.8,0,27.3,5.3,17.6,17.8c-5.4,5.1-11.6,9.2-18.3,12.2
			c-4.7,2.1-5.7-3.2-7-6.8c-0.5-1.3-0.1-2.7,1-3.6c2.2-1.7,9-3.4,11-6.3L141.9,29.6z M221,20.9c-0.6,0.3-18.9,12.7-21.3,14.8
			c-1.3,1.2-1.5,3.2-0.3,4.5l3.1,4.5c1.1,1.3,3.1,1.4,4.4,0.3l20.8-14.3c0.3-0.1,0,0.1,0.9-0.5c1.1-1.3,1.2-3,0.4-4.5l-2.9-4.2
			l-0.3-0.2c-0.5-0.7-1.3-1.1-2.2-1.2C222.6,20,221.8,20.3,221,20.9L221,20.9z M182.2,31c-1.9,2.9-8.7,4.6-11,6.3
			c-1.1,0.9-1.5,2.3-1,3.6c1.3,3.6,2.3,9,7,6.8c6.8-3,13-7.2,18.5-12.2c9.6-12.6-7.8-17.8-17.6-17.8c-1.5,0-2.8,1.1-3.1,2.5
			l-1.7,6.2c0,1.7,1.3,3.1,3,3.2L182.2,31z"/>
	</g>
</g>
</svg>
