<svg xmlns="http://www.w3.org/2000/svg" viewBox="0 0 112.38 112.38"><defs><style>.cls-1{fill:#e9b94e;}.cls-2{fill:#c02033;}.cls-3{fill:#9b1b33;}</style></defs><g id="Layer_2" data-name="Layer 2"><g id="Layer_1-2" data-name="Layer 1"><path class="cls-1" d="M24,85.63,19.8,93.34l7.53-4.46A44.29,44.29,0,0,1,24,85.63Z"/><path class="cls-1" d="M88.28,26.75,92.48,19,85,23.5A44.43,44.43,0,0,1,88.28,26.75Z"/><path class="cls-2" d="M56.14,24.44A31.75,31.75,0,1,0,87.89,56.19,31.76,31.76,0,0,0,56.14,24.44Zm0,61.28A29.53,29.53,0,1,1,85.67,56.19,29.53,29.53,0,0,1,56.14,85.72Z"/><path class="cls-2" d="M54,14.72,66.24,0,63.88,15.46l-.08,0a41.38,41.38,0,0,1,33,35.2l-9.47-8a34.32,34.32,0,0,0-40-19.89h0Z"/><path class="cls-2" d="M14.72,58.35,0,46.14,15.46,48.5l0,.07A41.39,41.39,0,0,1,50.7,15.62l-8,9.47a34.31,34.31,0,0,0-19.89,40v0Z"/><path class="cls-2" d="M58.35,97.65,46.14,112.38,48.5,96.92l.07,0a41.39,41.39,0,0,1-32.95-35.2l9.47,8a34.28,34.28,0,0,0,40,19.88h0Z"/><path class="cls-2" d="M97.65,54l14.73,12.21L96.92,63.88l0-.08a41.38,41.38,0,0,1-35.2,33l8-9.47a34.29,34.29,0,0,0,19.88-40h0Z"/><path class="cls-1" d="M51.71,51.86l22.19-14L60.67,60.52l-22.2,14Zm8.43,3.73,5.15-8.83-8.64,5.46Z"/><polygon class="cls-2" points="51.71 51.86 60.67 60.52 38.48 74.53 51.71 51.86"/><path class="cls-3" d="M69.13,97l-23,15.43L57.66,98.49S61.47,99.91,69.13,97Z"/></g></g></svg>