<?xml version="1.0" standalone="no"?>
<!DOCTYPE svg PUBLIC "-//W3C//DTD SVG 20010904//EN"
 "http://www.w3.org/TR/2001/REC-SVG-20010904/DTD/svg10.dtd">
<svg version="1.0" xmlns="http://www.w3.org/2000/svg"
 width="700.000000pt" height="700.000000pt" viewBox="0 0 700.000000 700.000000"
 preserveAspectRatio="xMidYMid meet">
<metadata>
Created by potrace 1.11, written by Peter Selinger 2001-2013
</metadata>
<g transform="translate(0.000000,700.000000) scale(0.100000,-0.100000)"
fill="#000000" stroke="none">
<path d="M4103 6977 c-4 -8 -24 -34 -45 -58 -36 -44 -329 -396 -397 -478 -20
-24 -48 -58 -63 -75 -14 -17 -108 -130 -208 -251 -100 -121 -192 -231 -204
-245 -11 -14 -50 -61 -86 -105 -36 -44 -67 -82 -70 -85 -3 -3 -23 -27 -45 -54
-31 -38 -35 -48 -20 -43 53 15 104 27 150 33 28 3 53 8 56 10 13 7 192 18 309
18 135 0 224 -7 317 -23 32 -6 69 -12 83 -15 259 -45 544 -163 785 -325 158
-107 347 -276 445 -400 19 -24 40 -49 47 -56 38 -40 174 -258 226 -363 l61
-123 146 -122 c80 -67 147 -124 150 -127 5 -6 242 -204 274 -230 17 -14 18
-13 12 15 -3 17 -8 48 -12 70 -19 139 -93 390 -166 565 -150 363 -435 747
-727 980 -24 19 -49 40 -55 45 -119 103 -355 244 -567 338 -145 64 -352 130
-484 154 -16 2 -32 6 -33 8 -3 3 18 154 43 310 14 86 37 236 41 265 2 19 6 42
9 50 2 8 7 40 10 70 4 30 8 57 10 60 2 3 6 33 10 68 4 35 10 76 15 92 9 31 -3
50 -17 27z"/>
<path d="M3149 6026 c-2 -2 -26 -6 -54 -9 -216 -23 -593 -149 -835 -280 -489
-265 -897 -708 -1126 -1222 -64 -144 -161 -448 -166 -523 -1 -11 -33 -11 -98
2 -8 1 -37 6 -65 10 -59 9 -83 13 -144 23 -25 4 -50 7 -56 8 -14 1 -97 14
-170 25 -33 6 -136 21 -230 35 -94 14 -176 28 -182 30 -41 14 5 -25 575 -494
70 -58 132 -109 138 -115 6 -6 30 -27 54 -46 46 -37 155 -127 230 -190 25 -21
79 -66 120 -100 41 -34 95 -79 120 -100 90 -76 155 -129 157 -127 1 1 -5 29
-13 62 -27 120 -47 303 -47 445 0 345 69 643 223 955 185 375 458 672 815 887
81 48 193 106 244 126 16 6 98 98 251 282 89 107 224 265 248 293 14 15 23 27
21 27 -3 0 -8 -2 -10 -4z"/>
<path d="M5530 5679 c-118 -72 -218 -133 -222 -137 -4 -4 37 -51 91 -105 75
-75 100 -95 108 -85 5 7 31 54 58 103 26 50 79 148 117 218 39 70 69 130 67
132 -2 2 -101 -55 -219 -126z"/>
<path d="M3368 5475 c-2 -2 -39 -6 -83 -9 -44 -4 -87 -9 -95 -11 -8 -2 -30 -7
-47 -10 -338 -57 -697 -232 -963 -470 -336 -300 -570 -728 -636 -1165 -3 -19
-8 -46 -11 -60 -13 -60 -11 -408 3 -505 112 -795 656 -1425 1418 -1644 195
-56 338 -76 551 -75 151 0 366 22 394 39 3 1 22 6 41 9 55 9 191 51 292 92
585 233 1023 734 1182 1350 8 33 18 75 21 94 3 19 10 60 15 90 18 110 21 158
22 300 0 165 -6 224 -33 365 -11 55 -22 111 -25 125 -14 70 -93 279 -146 385
-52 105 -165 290 -201 327 -6 7 -30 36 -51 63 -100 127 -302 304 -466 409 -61
39 -225 123 -325 166 -55 24 -261 85 -323 96 -82 14 -143 24 -182 30 -43 6
-347 14 -352 9z m359 -148 c11 -3 43 -8 70 -12 26 -4 98 -20 160 -36 529 -138
965 -497 1200 -990 65 -135 128 -328 147 -449 3 -19 8 -46 11 -60 17 -83 24
-321 12 -455 -6 -69 -13 -112 -43 -263 -15 -74 -91 -279 -142 -380 -67 -132
-131 -233 -220 -342 -64 -81 -212 -227 -277 -275 -22 -17 -42 -33 -45 -36 -17
-21 -207 -136 -302 -182 -111 -54 -292 -121 -359 -132 -19 -3 -42 -8 -51 -11
-21 -6 -49 -11 -166 -30 -56 -9 -359 -12 -422 -4 -74 10 -128 19 -150 25 -8 2
-31 7 -50 10 -143 24 -419 135 -570 230 -154 96 -343 262 -452 395 -232 283
-375 630 -413 1000 -10 105 -5 356 10 426 3 12 7 39 10 60 10 66 52 225 80
304 26 71 119 272 147 315 114 178 176 255 300 377 197 195 416 331 679 423
222 77 380 102 629 99 102 -1 195 -4 207 -7z"/>
<path d="M4434 4537 c-88 -56 -189 -121 -225 -143 -35 -23 -266 -169 -514
-324 -247 -156 -460 -292 -471 -304 -21 -21 -827 -1396 -821 -1402 1 -1 36 19
77 45 41 26 345 218 675 426 330 207 608 385 617 394 13 13 196 320 311 521
11 19 58 100 105 180 46 80 94 161 105 180 11 19 58 100 105 180 46 80 96 165
110 190 14 25 35 61 47 80 26 42 47 80 43 79 -2 0 -75 -46 -164 -102z m-391
-489 c-11 -18 -82 -140 -158 -271 l-138 -238 -41 39 c-23 22 -72 69 -109 104
l-68 65 258 166 c142 91 262 165 266 166 5 1 0 -14 -10 -31z"/>
<path d="M5580 4049 c0 -2 5 -20 10 -39 11 -38 14 -53 29 -150 38 -238 33
-500 -14 -751 -13 -68 -57 -224 -90 -314 -185 -511 -559 -930 -1052 -1176
l-123 -62 -102 -121 c-57 -67 -110 -130 -119 -141 -10 -11 -74 -87 -143 -168
-69 -81 -126 -150 -126 -152 0 -19 451 90 555 134 11 5 61 26 110 46 201 82
461 240 635 385 429 358 735 847 863 1380 21 89 24 95 47 94 43 -3 143 -15
149 -18 3 -2 31 -7 61 -10 30 -4 84 -11 120 -17 36 -6 81 -13 100 -15 19 -2
60 -9 90 -14 30 -5 87 -14 125 -20 39 -5 81 -12 95 -14 14 -2 48 -7 75 -11 28
-3 66 -9 85 -12 l35 -5 -25 22 c-34 29 -56 47 -120 100 -30 25 -66 55 -80 66
-14 12 -110 93 -215 179 -104 87 -210 174 -235 195 -25 21 -169 140 -320 265
-151 125 -289 240 -306 254 -32 27 -67 56 -97 80 -9 7 -17 12 -17 10z"/>
<path d="M980 3108 c5 -24 11 -61 14 -83 4 -22 17 -85 31 -140 142 -589 481
-1099 980 -1472 227 -170 527 -316 826 -402 107 -31 140 -39 172 -40 20 -1 20
-5 -8 -181 -8 -47 -17 -103 -20 -125 -15 -100 -56 -373 -60 -395 -11 -64 -25
-159 -30 -199 -3 -23 -8 -48 -12 -54 -17 -28 56 17 347 213 173 116 484 325
691 463 208 139 376 253 375 255 -2 1 -29 -7 -62 -18 -211 -73 -424 -100 -587
-76 l-48 7 43 53 c24 30 122 148 218 262 223 266 210 250 185 240 -23 -9 -213
-43 -289 -52 -85 -10 -295 -11 -396 -2 -751 63 -1426 530 -1747 1208 -41 87
-46 93 -208 229 -27 24 -61 52 -75 65 -14 12 -52 44 -85 71 -33 28 -103 87
-156 132 -53 46 -99 83 -102 83 -2 0 -1 -19 3 -42z"/>
<path d="M1449 1583 c-23 -43 -65 -121 -94 -173 -29 -52 -67 -121 -84 -152
-17 -31 -31 -59 -31 -62 0 -3 35 15 78 40 42 25 146 87 230 136 l152 91 -101
98 c-55 55 -102 99 -104 99 -2 0 -23 -35 -46 -77z"/>
</g>
</svg>
